# xmcd
#
# Track frame offsets:
#	150
#	13965
#	23281
#	33554
#	47788
#	64302
#	73521
#	86558
#	98258
#	111330
#	126122
#	135344
#	146232
#	159158
#	173800
#	192523
#	204920
#	218398
#	232667
#	244612
#	259427
#	274115
#
# Disc length: 3838 seconds
#
# Revision: 1
# Processed by: cddbd v1.5.2PL0 Copyright (c) Steve Scherf et al.
# Submitted via: EasyCDDAExtractor 15.3.0.1
#
DISCID=2a0efc16
DTITLE=Ray Charles - Singular Genius: The Complete ABC Singles CD1  (2011)
DYEAR=2011
DGENRE=R&B
TTITLE0=My Baby (I Love Her Yes I Do)
TTITLE1=Who You Gonna Love
TTITLE2=Sticks And Stones
TTITLE3=Worried Life Blues
TTITLE4=Georgia On My Mind
TTITLE5=Carry Me Back To Old Virginny
TTITLE6=Them That Got
TTITLE7=I Wonder
TTITLE8=Ruby
TTITLE9=Hardhearted Hannah
TTITLE10=Hit The Road, Jack
TTITLE11=The Danger Zone
TTITLE12=Unchain My Heart
TTITLE13=But On The Other Hand, Baby
TTITLE14=Baby, It's Cold Outside
TTITLE15=We'll Be Together Again
TTITLE16=At The Club
TTITLE17=Hide Nor Hair
TTITLE18=I Can't Stop Loving You
TTITLE19=Born To Lose
TTITLE20=You Don't Know Me
TTITLE21=Careless Love
EXTD=
EXTT0=
EXTT1=
EXTT2=
EXTT3=
EXTT4=
EXTT5=
EXTT6=
EXTT7=
EXTT8=
EXTT9=
EXTT10=
EXTT11=
EXTT12=
EXTT13=
EXTT14=
EXTT15=
EXTT16=
EXTT17=
EXTT18=
EXTT19=
EXTT20=
EXTT21=
PLAYORDER=
